<svg width="50" height="50" viewBox="0 0 550 609" version="1.1" xmlns="http://www.w3.org/2000/svg" xmlns:xlink="http://www.w3.org/1999/xlink">
<title>leve-ren</title>
<desc>Created using Figma</desc>
<g id="Canvas" transform="translate(88 -274)">
<g id="leve-ren">
<g id="Group">
<g id="Vector">
<use xlink:href="#path0_fill" transform="translate(53.8 391.8)" fill="#FFFFFF"/>
</g>
<g id="Vector">
<use xlink:href="#path1_fill" transform="translate(376 274)" fill="#FFFFFF"/>
</g>
<g id="Vector">
<use xlink:href="#path2_fill" transform="translate(-88 457.2)" fill="#FFFFFF"/>
</g>
<g id="Vector">
<use xlink:href="#path3_fill" transform="translate(199.962 330.609)" fill="#FFFFFF"/>
</g>
<g id="Vector">
<use xlink:href="#path4_fill" transform="translate(10.4 701.1)" fill="#FFFFFF"/>
</g>
<g id="Vector">
<use xlink:href="#path5_fill" transform="translate(322.9 583.2)" fill="#FFFFFF"/>
</g>
<g id="Vector">
<use xlink:href="#path6_fill" transform="translate(171.1 642.1)" fill="#FFFFFF"/>
</g>
</g>
</g>
</g>
<defs>
<path id="path0_fill" d="M 81 -1.52588e-06L 4.8 -1.52588e-06C 2.1 -1.52588e-06 -6.10352e-06 2.2 -6.10352e-06 4.8L -6.10352e-06 174.8C -6.10352e-06 177.5 2.2 179.6 4.8 179.6L 81 179.6C 83.7 179.6 85.8 177.4 85.8 174.8L 85.8 171.2C 85.8 168.5 83.6 166.4 81 166.4L 23.2 166.4C 18.8 166.4 15.1 162.8 15.1 158.3L 15.1 98C 15.1 93.6 18.7 89.9 23.2 89.9L 68.7 89.9C 71.4 89.9 73.5 87.7 73.5 85.1L 73.5 81.5C 73.5 78.8 71.3 76.7 68.7 76.7L 23.2 76.7C 18.8 76.7 15.1 73.1 15.1 68.6L 15.1 21.2C 15.1 16.8 18.7 13.1 23.2 13.1L 81 13.1C 83.7 13.1 85.8 10.9 85.8 8.3L 85.8 4.7C 85.9 2.2 83.7 -1.52588e-06 81 -1.52588e-06Z"/>
<path id="path1_fill" d="M 23.1 13.2L 81 13.2C 83.7 13.2 85.8 11 85.8 8.4L 85.8 4.8C 85.8 2.1 83.6 -4.76837e-08 81 -4.76837e-08L 4.79999 -4.76837e-08C 2.09999 -4.76837e-08 6.10352e-06 2.2 6.10352e-06 4.8L 6.10352e-06 174.8C 6.10352e-06 177.5 2.19999 179.6 4.79999 179.6L 81 179.6C 83.7 179.6 85.8 177.4 85.8 174.8L 85.8 171.2C 85.8 168.5 83.6 166.4 81 166.4L 23.1 166.4C 18.7 166.4 15 162.8 15 158.3L 15 98.1C 15 93.7 18.6 90 23.1 90L 68.6 90C 71.3 90 73.4 87.8 73.4 85.2L 73.4 81.6C 73.4 78.9 71.2 76.8 68.6 76.8L 23.1 76.8C 18.7 76.8 15 73.2 15 68.7L 15 21.3C 15 16.8 18.6 13.2 23.1 13.2Z"/>
<path id="path2_fill" d="M 85.4 166.4L 23.2 166.4C 18.8 166.4 15.1 162.8 15.1 158.3L 15.1 4.8C 15.1 2.1 12.9 0 10.3 0L 4.8 0C 2.1 0 -9.53674e-08 2.2 -9.53674e-08 4.8L -9.53674e-08 174.8C -9.53674e-08 177.5 2.2 179.6 4.8 179.6L 85.4 179.6C 88.1 179.6 90.2 177.4 90.2 174.8L 90.2 171.2C 90.3 168.6 88.1 166.4 85.4 166.4Z"/>
<path id="path3_fill" d="M 103.138 1.29105L 97.1378 0.091049C 94.4378 -0.408951 91.8378 1.19105 91.1378 3.89105L 57.5378 140.891C 55.7378 148.091 55.5378 148.391 54.1378 148.391C 52.7378 148.391 52.5378 148.191 50.7378 140.991L 15.5378 3.99105C 14.9378 1.69105 12.8378 0.091049 10.5378 0.091049C 10.2378 0.091049 9.83784 0.0910475 9.53784 0.191047L 3.53784 1.39105C 2.33784 1.69105 1.23784 2.39105 0.637842 3.39105C 0.0378415 4.39105 -0.162158 5.69105 0.137842 6.89105L 47.8378 180.591C 48.5378 183.291 51.1378 185.591 53.4378 185.591C 55.7378 185.591 58.2378 183.291 59.0378 180.591L 106.638 6.89105C 106.938 5.69105 106.838 4.39105 106.138 3.39105C 105.438 2.19105 104.438 1.49105 103.138 1.29105Z"/>
<path id="path4_fill" d="M 53.6 100C 53.2 99.1 53.1 98.2 53.6 97.3C 54.1 96.4 55 95.8 56.1 95.6L 59 94.5C 69.5 90.5 87 79.1 87 46.9C 87 6.19999 54.2 0.899988 53.9 0.899988C 50.5 0.399988 44.8 -6.10352e-06 41.3 -6.10352e-06L 4.8 -6.10352e-06C 2.1 -6.10352e-06 -1.42109e-14 2.20001 -1.42109e-14 4.80001L -1.42109e-14 174.8C -1.42109e-14 177.5 2.2 179.6 4.8 179.6L 10.3 179.6C 13 179.6 15.1 177.4 15.1 174.8L 15.1 106.3C 15.1 101.9 18.7 98.2 23.2 98.2L 30.9 98.2C 35.1 98.2 39.8 101.2 41.6 104.9L 77.1 178.3C 77.7 179.5 78.6 180.3 79.9 180.8C 81.1 181.2 82.4 181.1 83.6 180.6L 88.4 178.3C 89.5 177.7 90.4 176.8 90.8 175.6C 91.2 174.4 91.1 173.1 90.5 172L 53.6 100ZM 37.2 85L 23.2 85C 18.8 85 15.1 81.4 15.1 76.9L 15.1 21.2C 15.1 16.8 18.7 13.1 23.2 13.1L 32.8 13.1C 36.4 13.1 42.2 13.2 45.7 13.3C 46 13.3 71 14.3 71 46.8C 71 80.1 51.1 83.7 50.2 83.8C 46.7 84.5 40.8 85 37.2 85Z"/>
<path id="path5_fill" d="M 87.1 0L 81.6 0C 78.9 0 76.8 2.19999 76.8 4.79999L 76.8 104.3C 76.8 107.8 76.8 113.6 76.8 117.2L 76.9 140.2C 76.9 143.2 76.6 145.1 75 145.4C 73.8 145.6 73 144.9 72.5 143.3C 71.8 141.2 70.2 136.7 69 133.4L 22 5C 21 2.3 17.7 0 14.9 0L 4.79999 0C 2.09999 0 0 2.19999 0 4.79999L 0 174.8C 0 177.5 2.19999 179.6 4.79999 179.6L 10.3 179.6C 13 179.6 15.1 177.4 15.1 174.8L 15.1 75.6C 15.1 72.1 15 66.3 14.9 62.8L 14.4 40.7C 14.4 39.4 14.3 36.7 16.3 36.3C 16.4 36.3 16.6 36.3 16.7 36.3C 18.4 36.3 19.2 38.6 19.7 39.7L 70 174.7C 71 177.4 74.3 179.7 77.2 179.7L 87.3 179.7C 90 179.7 92.1 177.5 92.1 174.9L 92.1 4.89999C 92 2.19999 89.8 0 87.1 0Z"/>
<path id="path6_fill" d="M 81 -6.10352e-06L 4.8 -6.10352e-06C 2.1 -6.10352e-06 1.2207e-05 2.20001 1.2207e-05 4.80001L 1.2207e-05 174.8C 1.2207e-05 177.5 2.2 179.6 4.8 179.6L 81 179.6C 83.7 179.6 85.8 177.4 85.8 174.8L 85.8 171.2C 85.8 168.5 83.6 166.4 81 166.4L 23.2 166.4C 18.8 166.4 15.1 162.8 15.1 158.3L 15.1 98.1C 15.1 93.7 18.7 90 23.2 90L 68.7 90C 71.4 90 73.5 87.8 73.5 85.2L 73.5 81.6C 73.5 78.9 71.3 76.8 68.7 76.8L 23.2 76.8C 18.8 76.8 15.1 73.2 15.1 68.7L 15.1 21.3C 15.1 16.9 18.7 13.2 23.2 13.2L 81 13.2C 83.7 13.2 85.8 11 85.8 8.39999L 85.8 4.80001C 85.8 2.20001 83.6 -6.10352e-06 81 -6.10352e-06Z"/>
</defs>
</svg>
