<svg width="120" height="38" viewBox="0 0 120 38" version="1.1" xmlns="http://www.w3.org/2000/svg" xmlns:xlink="http://www.w3.org/1999/xlink">
<title>logo</title>
<desc>Created using Figma</desc>
<g id="Canvas" transform="translate(176 171)">
<g id="logo">
<g id="Vector">
<use xlink:href="#path0_fill" transform="translate(-175.822 -148.911)" fill="#282828"/>
</g>
<g id="Vector">
<use xlink:href="#path1_fill" transform="translate(-176 -171)" fill="#282828"/>
</g>
<g id="Vector">
<use xlink:href="#path2_fill" transform="translate(-163.474 -169.9)" fill="#282828"/>
</g>
<g id="Vector">
<use xlink:href="#path3_fill" transform="translate(-156.302 -170.106)" fill="#282828"/>
</g>
<g id="Vector">
<use xlink:href="#path4_fill" transform="translate(-145.664 -169.833)" fill="#282828"/>
</g>
<g id="Vector">
<use xlink:href="#path5_fill" transform="translate(-134.37 -170.113)" fill="#282828"/>
</g>
<g id="Vector">
<use xlink:href="#path6_fill" transform="translate(-123.099 -170.119)" fill="#282828"/>
</g>
<g id="Vector">
<use xlink:href="#path7_fill" transform="translate(-110.274 -170.112)" fill="#282828"/>
</g>
<g id="Vector">
<use xlink:href="#path8_fill" transform="translate(-156.511 -149.163)" fill="#282828"/>
</g>
<g id="Vector">
<use xlink:href="#path9_fill" transform="translate(-138.599 -149.163)" fill="#282828"/>
</g>
<g id="Vector">
<use xlink:href="#path10_fill" transform="translate(-126.49 -149.169)" fill="#282828"/>
</g>
<g id="Vector">
<use xlink:href="#path11_fill" transform="translate(-115.172 -149.163)" fill="#282828"/>
</g>
<g id="Vector">
<use xlink:href="#path12_fill" transform="translate(-102.287 -153.517)" fill="#282828"/>
</g>
<g id="Vector">
<use xlink:href="#path13_fill" transform="translate(-95.9756 -149.136)" fill="#282828"/>
</g>
<g id="Vector">
<use xlink:href="#path14_fill" transform="translate(-83.3079 -153.524)" fill="#282828"/>
</g>
<g id="Vector">
<use xlink:href="#path15_fill" transform="translate(-77.3232 -149.163)" fill="#282828"/>
</g>
<g id="Vector">
<use xlink:href="#path16_fill" transform="translate(-65.6306 -149.157)" fill="#282828"/>
</g>
</g>
</g>
<defs>
<path id="path0_fill" d="M 0 1.61838L 0 -4.566e-07L 14.1589 -4.566e-07L 14.1589 1.61838L 0 1.61838Z"/>
<path id="path1_fill" d="M 10.2074 13.6457C 10.2139 14.0764 10.1218 14.5029 9.93806 14.8925C 9.77258 15.2383 9.55097 15.5542 9.28223 15.8276C 9.01714 16.0902 8.70829 16.3045 8.36955 16.461C 8.01449 16.6269 7.64354 16.7564 7.26238 16.8475C 6.87368 16.9412 6.47862 17.0062 6.08039 17.042C 5.67974 17.0769 5.28575 17.0952 4.8984 17.0969C 4.54098 17.0969 4.17192 17.0786 3.79122 17.042C 3.41756 17.0069 3.04731 16.9419 2.68405 16.8475C 2.32823 16.7549 1.98306 16.6254 1.65417 16.461C 1.32838 16.2989 1.03109 16.085 0.773916 15.8276C 0.539886 15.5919 0.350622 15.3156 0.21534 15.0122C 0.0646086 14.6595 -0.00852855 14.2785 0.000886825 13.895C -0.0133939 13.3685 0.145132 12.8517 0.452236 12.4238C 0.73692 12.0288 1.11237 11.7081 1.54695 11.4887C 1.17886 11.349 0.861002 11.1023 0.634272 10.7805C 0.399443 10.4557 0.275297 10.064 0.280175 9.66331C 0.270615 9.20715 0.414645 8.76101 0.689132 8.39654C 0.96051 8.03894 1.31367 7.75162 1.71901 7.55868C 1.31975 7.2026 1.00461 6.76225 0.796359 6.26946C 0.587993 5.79104 0.479385 5.27515 0.477173 4.75333C 0.460857 4.22814 0.556045 3.70546 0.756461 3.21974C 1.16402 2.29868 1.91586 1.5737 2.85112 1.19989C 3.45097 0.971401 4.08964 0.862133 4.73133 0.878208C 5.19916 0.872185 5.66563 0.930073 6.11779 1.05027C 6.50674 1.15696 6.87925 1.31637 7.22497 1.52406C 7.38893 1.06597 7.69354 0.671453 8.09525 0.396935C 8.49914 0.129379 8.9749 -0.00891161 9.45928 0.000445363C 9.54406 0.000445363 9.63383 0.000445363 9.72859 0.000445363C 9.82335 0.000445363 9.91063 0.0179009 9.9979 0.0328628L 9.9979 1.51409C 9.93421 1.49877 9.8689 1.49124 9.8034 1.49164L 9.58396 1.49164C 9.26556 1.4802 8.95239 1.57494 8.69373 1.76096C 8.45949 1.93556 8.30144 2.19362 8.25235 2.48162C 8.48536 2.77668 8.66357 3.11113 8.77851 3.4691C 8.90696 3.88224 8.96842 4.31328 8.96055 4.74585C 8.96491 5.70627 8.609 6.63343 7.96309 7.34423C 7.58526 7.74522 7.12847 8.06361 6.62151 8.27934C 6.01956 8.52794 5.37245 8.64853 4.72135 8.63344C 4.40839 8.63774 4.09561 8.61605 3.78624 8.5686C 3.48399 8.51198 3.18642 8.43279 2.89601 8.33171C 2.66311 8.41038 2.44971 8.53791 2.2701 8.70575C 2.17399 8.79194 2.09819 8.89837 2.04817 9.01739C 1.99815 9.1364 1.97515 9.26503 1.98084 9.394C 1.9716 9.57988 2.02908 9.76295 2.14293 9.91019C 2.25377 10.0379 2.39297 10.1378 2.54939 10.2019C 2.71685 10.2744 2.89419 10.3215 3.07555 10.3416C 3.2535 10.3626 3.4325 10.3734 3.61168 10.374L 5.75871 10.374C 6.41742 10.376 7.07361 10.4555 7.71373 10.6109C 8.33411 10.7473 8.90154 11.0609 9.34706 11.5136C 9.60903 11.7771 9.82034 12.0864 9.97047 12.4263C 10.1355 12.8112 10.2162 13.227 10.2074 13.6457L 10.2074 13.6457ZM 8.42442 13.6457C 8.44548 13.3079 8.35142 12.973 8.1576 12.6956C 7.978 12.4655 7.74047 12.2874 7.46935 12.1794C 7.17453 12.0613 6.86339 11.989 6.5467 11.9649C 6.21422 11.9367 5.88173 11.9226 5.54924 11.9226L 3.03316 11.9226C 2.65749 12.0385 2.32213 12.258 2.06562 12.5559C 1.79709 12.8528 1.65097 13.2404 1.65667 13.6407C 1.65044 13.851 1.68726 14.0603 1.76488 14.2559C 1.84249 14.4514 1.95926 14.629 2.10802 14.7778C 2.28378 14.9535 2.49215 15.0933 2.72145 15.1892C 2.9623 15.2899 3.21303 15.3652 3.46955 15.4137C 3.72801 15.464 3.98963 15.4965 4.25255 15.5109C 4.51688 15.5242 4.77123 15.5317 5.0156 15.5334C 5.25998 15.535 5.50935 15.5275 5.7637 15.5109C 6.03785 15.4961 6.31046 15.4603 6.57912 15.4037C 6.84344 15.3483 7.10219 15.269 7.35215 15.1668C 7.58507 15.0733 7.79701 14.9342 7.97556 14.7578C 8.12208 14.6127 8.23745 14.4392 8.31463 14.248C 8.39181 14.0568 8.42917 13.8518 8.42442 13.6457L 8.42442 13.6457ZM 7.17759 4.75333C 7.18768 4.43927 7.13486 4.12635 7.02223 3.83301C 6.90961 3.53966 6.73945 3.2718 6.52176 3.04518C 6.28242 2.81303 5.99749 2.6331 5.685 2.51678C 5.37251 2.40045 5.03928 2.35027 4.70639 2.36941C 4.37854 2.35532 4.05124 2.40795 3.74433 2.52411C 3.43743 2.64027 3.1573 2.81755 2.92094 3.04518C 2.69767 3.2687 2.52252 3.53556 2.4063 3.82933C 2.29008 4.1231 2.23524 4.43756 2.24517 4.75333C 2.22748 5.39328 2.46318 6.01434 2.90099 6.48143C 3.13685 6.71978 3.42066 6.90529 3.73363 7.02566C 4.0466 7.14604 4.38158 7.19852 4.71637 7.17965C 5.04058 7.19459 5.36439 7.14233 5.66744 7.02615C 5.97049 6.90997 6.24625 6.73237 6.47738 6.50452C 6.70851 6.27666 6.89003 6.00348 7.01053 5.70211C 7.13103 5.40075 7.18791 5.07773 7.17759 4.75333L 7.17759 4.75333Z"/>
<path id="path2_fill" d="M 5.85507 1.84786C 5.69714 1.8196 5.5309 1.79799 5.35635 1.78302C 5.18179 1.76806 5.01555 1.76058 4.85762 1.76058C 4.45412 1.75602 4.05465 1.8412 3.6881 2.00994C 3.35563 2.15879 3.05181 2.36472 2.79039 2.61839C 2.57415 2.83637 2.39627 3.08929 2.26423 3.36649C 2.12639 3.64927 2.02501 3.9484 1.9625 4.25672C 1.89818 4.56849 1.85486 4.88423 1.83283 5.20181C 1.81122 5.51767 1.80041 5.81857 1.80041 6.10451L 1.80041 10.9347L 1.1415e-07 10.9347L 1.1415e-07 0.0673967L 1.61588 0.0673967L 1.7655 1.98002C 2.01842 1.34263 2.48583 0.813485 3.08713 0.483835C 3.67677 0.162578 4.33826 -0.00386829 5.00973 6.82365e-05C 5.29771 0.000292702 5.58527 0.0219643 5.87004 0.064903L 5.87004 1.84786L 5.85507 1.84786Z"/>
<path id="path3_fill" d="M 9.62311 5.12577L 9.62311 5.71676C 9.62311 5.9096 9.61563 6.1066 9.60066 6.30776L 1.91276 6.30776C 1.914 6.81933 2.00865 7.32637 2.19205 7.80394C 2.35654 8.27056 2.62028 8.69594 2.96508 9.05076C 3.2275 9.30858 3.53978 9.51012 3.8828 9.64305C 4.22582 9.77597 4.59237 9.83747 4.95999 9.82379C 5.84773 9.82379 6.52101 9.58773 6.97984 9.1156C 7.12971 8.96678 7.25964 8.79913 7.36636 8.61687C 7.48059 8.39995 7.56449 8.16837 7.61572 7.92863L 9.40616 7.92863C 9.33458 8.47147 9.14384 8.99177 8.84758 9.45224C 8.55928 9.91176 8.1789 10.3066 7.73043 10.6118C 7.33274 10.8747 6.89828 11.0772 6.44122 11.2128C 5.96073 11.3568 5.4616 11.4291 4.95999 11.4272C 4.24472 11.4392 3.53609 11.2882 2.88778 10.9858C 2.29506 10.7051 1.77082 10.2983 1.35169 9.79387C 0.889983 9.25815 0.542886 8.63354 0.331791 7.95855C 0.107435 7.24629 -0.00446161 6.5034 0.000135804 5.75666C -0.00304568 5.13216 0.0621776 4.50919 0.19464 3.8989C 0.320008 3.32737 0.537285 2.77996 0.838 2.27803C 1.23761 1.60581 1.79912 1.0443 2.47134 0.644693C 3.21782 0.203444 4.07315 -0.0194599 4.94004 0.00133258C 5.55861 -0.0130231 6.17319 0.104024 6.74317 0.344743C 7.31316 0.585462 7.82559 0.944374 8.24661 1.39777C 8.68211 1.88822 9.02058 2.45686 9.24407 3.0735C 9.49373 3.72897 9.62216 4.42436 9.62311 5.12577ZM 7.75537 4.73926C 7.75633 4.3324 7.69838 3.92756 7.58331 3.53732C 7.47737 3.17795 7.30851 2.84023 7.08458 2.53986C 6.85061 2.23502 6.54935 1.98839 6.20432 1.8192C 5.80888 1.63177 5.37504 1.53953 4.93755 1.54988C 4.48951 1.53827 4.0451 1.63313 3.64085 1.82668C 3.2866 2.00461 2.97259 2.25327 2.71821 2.55732C 2.46805 2.85626 2.27835 3.20095 2.15963 3.57223C 2.03787 3.95077 1.96905 4.34434 1.95515 4.74175L 7.75287 4.74175L 7.75537 4.73926Z"/>
<path id="path4_fill" d="M 5.32143 13.0991C 5.10513 13.7345 4.745 14.3114 4.26912 14.7848C 3.82525 15.2071 3.19519 15.4182 2.37893 15.4182C 2.00471 15.4254 1.63064 15.397 1.26178 15.3334C 1.0804 15.3021 0.901303 15.2588 0.725652 15.2037L 0.725652 13.6153C 0.840359 13.6436 0.969195 13.6718 1.11216 13.7001C 1.24318 13.7341 1.37654 13.7582 1.51115 13.7724C 1.66077 13.7857 1.82701 13.7932 2.00988 13.7948C 2.35758 13.8066 2.70206 13.7248 3.00733 13.5579C 3.31476 13.3541 3.5421 13.0501 3.65069 12.6976L 4.33894 10.8723L 6.088e-07 0.00498752L 2.06224 0.00498752L 5.25161 8.56816L 8.30134 1.1415e-07L 10.214 1.1415e-07L 5.32143 13.0991Z"/>
<path id="path5_fill" d="M 8.97462 7.99034C 8.98108 8.41771 8.90048 8.84193 8.73773 9.23716C 8.588 9.58985 8.37693 9.91321 8.11432 10.1922C 7.68641 10.6297 7.15444 10.9515 6.56826 11.1273C 5.92189 11.3248 5.24916 11.4223 4.57334 11.4166C 3.91951 11.4209 3.26851 11.3302 2.64077 11.1473C 2.03911 10.9682 1.49262 10.6397 1.05232 10.1922C 0.722713 9.86264 0.460188 9.47224 0.27929 9.04265C 0.0958065 8.61915 0.000765162 8.16262 -1.0654e-06 7.70107L 1.82535 7.70107C 1.82859 8.04223 1.91413 8.37756 2.07471 8.67858C 2.23207 8.95819 2.44408 9.20328 2.69812 9.39925C 2.9653 9.59577 3.27421 9.72804 3.60082 9.78576C 3.94719 9.85618 4.29968 9.8921 4.65314 9.89299C 5.01057 9.89494 5.36702 9.85561 5.71543 9.77579C 6.06156 9.69224 6.38238 9.52627 6.65055 9.29202C 6.82001 9.16167 6.95311 8.98992 7.03706 8.79329C 7.13725 8.57777 7.18835 8.34271 7.18668 8.10505C 7.19197 7.91283 7.15648 7.72167 7.08255 7.54416C 7.00863 7.36665 6.89794 7.20681 6.75777 7.07517C 6.4007 6.77861 5.95913 6.60233 5.49599 6.57145L 5.02469 6.50662L 4.38133 6.42184L 3.68311 6.33705C 3.44705 6.30879 3.23592 6.28053 3.04973 6.25227C 2.31595 6.1665 1.63118 5.84034 1.10219 5.32463C 0.854953 5.05708 0.663812 4.74271 0.540038 4.40008C 0.416265 4.05746 0.362365 3.69351 0.381526 3.32972C 0.381038 2.91726 0.473068 2.50994 0.65084 2.13776C 0.806515 1.79189 1.0208 1.47553 1.28423 1.20264C 1.66645 0.814556 2.12846 0.514202 2.63827 0.322384C 3.22832 0.0992629 3.85533 -0.0098939 4.48606 0.000703792C 5.16647 -0.00733127 5.84259 0.1093 6.48098 0.344827C 7.05124 0.551572 7.55579 0.907165 7.94225 1.3747C 8.17864 1.65078 8.37047 1.96208 8.51081 2.29735C 8.6542 2.66676 8.72367 3.06072 8.71528 3.45689L 6.88994 3.45689C 6.87871 3.18425 6.80898 2.91721 6.68546 2.67389C 6.58074 2.46097 6.43887 2.26843 6.26653 2.10534C 5.76668 1.69388 5.12988 1.48636 4.48357 1.52432C 4.26912 1.52432 4.0688 1.5318 3.8826 1.54676C 3.65141 1.57419 3.4264 1.63992 3.2168 1.74127C 2.89681 1.8662 2.61792 2.07774 2.41135 2.35221C 2.22558 2.596 2.12407 2.89355 2.12209 3.20005C 2.10552 3.38483 2.13177 3.57095 2.1988 3.74394C 2.26584 3.91693 2.37185 4.07214 2.5086 4.19751C 2.82424 4.42841 3.19473 4.57282 3.58337 4.61644C 3.88427 4.65966 4.24917 4.70621 4.67808 4.75608C 5.10698 4.80596 5.61569 4.88076 6.20418 4.98051C 6.94812 5.09703 7.63602 5.44622 8.16918 5.97797C 8.43429 6.2402 8.64261 6.55419 8.78118 6.90039C 8.91974 7.24659 8.98559 7.6176 8.97462 7.99034L 8.97462 7.99034Z"/>
<path id="path6_fill" d="M 9.66555 5.72006C 9.6709 6.5398 9.56264 7.35634 9.34387 8.14637C 9.15287 8.80552 8.81487 9.41278 8.35531 9.92244C 7.89574 10.4321 7.32658 10.8309 6.69063 11.0889C 5.49449 11.547 4.17125 11.547 2.97511 11.0889C 2.33916 10.8309 1.77 10.4321 1.31043 9.92244C 0.850869 9.41278 0.51287 8.80552 0.321869 8.14637C 0.103099 7.35634 -0.00515928 6.5398 0.00018691 5.72006C -0.00515928 4.90031 0.103099 4.08378 0.321869 3.29374C 0.51171 2.63314 0.849196 2.02431 1.30884 1.51327C 1.76848 1.00222 2.33825 0.602315 2.97511 0.343762C 4.17121 -0.114587 5.49453 -0.114587 6.69063 0.343762C 7.32667 0.601553 7.89593 1.00031 8.35551 1.51C 8.8151 2.01969 9.15303 2.62703 9.34387 3.28626C 9.56333 4.07871 9.67159 4.89781 9.66555 5.72006L 9.66555 5.72006ZM 7.79781 5.72006C 7.7995 5.09124 7.72753 4.46439 7.58336 3.85232C 7.45855 3.29077 7.18361 2.77364 6.78788 2.35613C 6.54879 2.1204 6.26809 1.93102 5.96 1.79756C 5.23877 1.51404 4.43695 1.51404 3.71572 1.79756C 3.40802 1.92536 3.12652 2.1088 2.88533 2.33868C 2.4895 2.75611 2.21455 3.27327 2.08986 3.83486C 1.80274 5.06515 1.80274 6.34504 2.08986 7.57533C 2.21443 8.13697 2.4894 8.65415 2.88533 9.07151C 3.12421 9.30751 3.40496 9.49694 3.71323 9.63009C 4.43446 9.91361 5.23627 9.91361 5.9575 9.63009C 6.26568 9.49678 6.54641 9.30738 6.78539 9.07151C 7.18112 8.654 7.45606 8.13688 7.58087 7.57533C 7.72489 6.96741 7.79769 6.3448 7.79781 5.72006Z"/>
<path id="path7_fill" d="M 6.95727 11.1466L 6.95727 4.25166C 6.95727 3.43541 6.7744 2.79787 6.40866 2.33904C 6.04293 1.88021 5.43116 1.65079 4.57334 1.65079C 4.06905 1.64198 3.57671 1.80463 3.1769 2.11212C 2.76307 2.4359 2.43156 2.85285 2.20937 3.32901C 2.01541 3.76277 1.90299 4.22854 1.87772 4.70301C 1.84114 5.21836 1.82368 5.68384 1.82535 6.09945L 1.82535 11.1466L -3.6528e-06 11.1466L -3.6528e-06 0.279288L 1.58845 0.279288L 1.73807 1.91262C 1.87692 1.60262 2.07322 1.32171 2.31659 1.08473C 2.55841 0.849363 2.83308 0.650294 3.13202 0.493741C 3.43219 0.336862 3.74926 0.214716 4.0771 0.129669C 4.38531 0.0462872 4.70292 0.00270958 5.0222 -9.51249e-08C 6.26736 -9.51249e-08 7.20497 0.350773 7.83503 1.05232C 8.46509 1.75386 8.78012 2.7347 8.78012 3.99482L 8.78012 11.1466L 6.95477 11.1466L 6.95727 11.1466Z"/>
<path id="path8_fill" d="M 13.2088 11.1466L 13.2088 4.23171C 13.2122 3.87805 13.1762 3.52511 13.1016 3.1794C 13.0409 2.88921 12.9203 2.61489 12.7475 2.37395C 12.5715 2.14307 12.3387 1.96178 12.0717 1.84779C 11.7311 1.70812 11.3649 1.64185 10.997 1.65329C 10.6787 1.64836 10.3635 1.71483 10.0743 1.84779C 9.79911 1.97877 9.5512 2.16069 9.34368 2.38392C 8.97164 2.75074 8.7121 3.21619 8.59559 3.7255C 8.47229 4.26451 8.41121 4.81589 8.41355 5.36881L 8.41355 11.1466L 6.58821 11.1466L 6.58821 4.23171C 6.59107 3.87857 6.55849 3.52603 6.49095 3.1794C 6.4367 2.88893 6.31921 2.61395 6.14683 2.37395C 5.97071 2.14323 5.73791 1.96198 5.47105 1.84779C 5.13046 1.70812 4.76424 1.64185 4.39629 1.65329C 4.03097 1.64785 3.67092 1.74088 3.35395 1.9226C 3.04433 2.10315 2.77116 2.33995 2.5485 2.62082C 2.26071 3.00014 2.06597 3.44172 1.97995 3.91003C 1.87601 4.39028 1.82169 4.87995 1.81787 5.37131L 1.81787 11.1491L 6.088e-07 11.1491L 6.088e-07 0.279288L 1.58845 0.279288L 1.76051 1.82535C 2.02134 1.23722 2.47173 0.75347 3.03975 0.45135C 3.63226 0.14279 4.29276 -0.0120576 4.96067 0.00101304C 5.62858 0.0140837 6.28252 0.194653 6.86251 0.526158C 7.4224 0.888335 7.84268 1.42995 8.05447 2.06224C 8.18971 1.73039 8.38214 1.42486 8.62302 1.15954C 8.85644 0.90454 9.12818 0.687483 9.42847 0.516185C 9.72792 0.344839 10.0492 0.214819 10.3835 0.12967C 10.7167 0.0438713 11.0594 0.000307281 11.4034 9.13199e-07C 12.6353 9.13199e-07 13.5496 0.364904 14.1464 1.09471C 14.7433 1.82452 15.04 2.79122 15.0367 3.99482L 15.0367 11.1466L 13.2113 11.1466L 13.2088 11.1466Z"/>
<path id="path9_fill" d="M 10.0519 11.0395C 9.86845 11.1339 9.67296 11.2027 9.47086 11.244C 9.26523 11.2818 9.05651 11.3001 8.84745 11.2988C 8.63184 11.3094 8.4166 11.2715 8.21762 11.1877C 8.01865 11.104 7.84103 10.9767 7.69788 10.8151C 7.41788 10.4908 7.26856 10.0739 7.27895 9.64556L 7.23905 9.64556C 6.90644 10.2061 6.41772 10.6575 5.83263 10.9448C 5.18391 11.2733 4.46507 11.4393 3.73797 11.4285C 3.1765 11.4413 2.61804 11.343 2.09466 11.1393C 1.66033 10.9663 1.26579 10.7067 0.935117 10.3762C 0.631997 10.0689 0.394453 9.70328 0.236896 9.30144C 0.0811612 8.91198 0.000773553 8.4965 1.0654e-06 8.07706C 0.00453932 7.70501 0.065926 7.33585 0.182036 6.98235C 0.310261 6.58498 0.526802 6.2218 0.81542 5.92006C 1.15567 5.56985 1.56042 5.28873 2.00738 5.09217C 2.59578 4.84138 3.22583 4.70269 3.86515 4.68321L 7.17172 4.4912L 7.17172 3.69573C 7.16949 3.40717 7.13689 3.11965 7.07447 2.83792C 7.00691 2.53133 6.84569 2.25334 6.61314 2.04244C 6.41037 1.86042 6.17287 1.72131 5.91492 1.63349C 5.56431 1.52308 5.1976 1.4725 4.83019 1.48387C 4.41443 1.47032 3.99964 1.53198 3.60581 1.6659C 3.32721 1.76625 3.07247 1.92334 2.85771 2.12723C 2.68376 2.29732 2.54645 2.50121 2.45425 2.72636C 2.36204 2.95151 2.3169 3.19314 2.32158 3.43639L 0.538625 3.43639C 0.54152 2.98977 0.633061 2.54817 0.807939 2.1372C 0.971588 1.77282 1.20063 1.44151 1.48372 1.15969C 1.887 0.753923 2.38488 0.454849 2.93252 0.289413C 3.54666 0.0932572 4.18799 -0.00437256 4.83268 0.000151198C 5.89165 0.000151198 6.72951 0.197148 7.34627 0.591143C 7.92539 0.944266 8.38231 1.46646 8.65544 2.08733C 8.87587 2.61811 8.98535 3.18838 8.97712 3.76306L 8.97712 9.02465C 8.95222 9.23213 9.0105 9.44103 9.1392 9.60566C 9.26119 9.71119 9.41957 9.76488 9.58058 9.75528L 9.73019 9.75528C 9.78095 9.75591 9.83148 9.74833 9.87982 9.73284L 10.0519 9.69045L 10.0519 11.0445L 10.0519 11.0395ZM 7.16424 5.9051L 4.24418 6.07716C 3.96069 6.09353 3.67979 6.14035 3.40631 6.2168C 3.1322 6.2903 2.87134 6.40642 2.63329 6.56093C 2.40365 6.71178 2.21238 6.91414 2.07471 7.15192C 1.9253 7.42068 1.8512 7.7248 1.86026 8.03217C 1.85868 8.51228 2.03655 8.97564 2.35899 9.33136C 2.69147 9.7104 3.24257 9.89991 4.01227 9.89991C 4.42653 9.90032 4.83761 9.82773 5.22668 9.68546C 5.614 9.54628 5.96331 9.31825 6.24658 9.01966C 6.56873 8.70155 6.81136 8.31199 6.95477 7.88256C 7.09784 7.45322 7.17026 7.0035 7.16923 6.55095L 7.16923 5.90759L 7.16424 5.9051Z"/>
<path id="path10_fill" d="M 9.28081 7.50177C 9.23236 8.5463 8.7778 9.53059 8.01404 10.2448C 7.62338 10.6199 7.1635 10.9155 6.65999 11.1151C 6.09122 11.3326 5.48586 11.4384 4.87704 11.4268C 4.02489 11.4611 3.18013 11.2564 2.43825 10.8358C 1.82836 10.4684 1.30451 9.97435 0.902168 9.38696C 0.595875 8.91218 0.370858 8.38967 0.236366 7.84091C -0.0787891 6.44121 -0.0787891 4.98894 0.236366 3.58924C 0.370858 3.04048 0.595875 2.51797 0.902168 2.04318C 1.30492 1.45615 1.82869 0.962142 2.43825 0.594376C 3.17264 0.17543 4.00974 -0.0293086 4.85459 0.00338416C 5.45002 -0.00393478 6.04172 0.098344 6.60015 0.305115C 7.10293 0.493035 7.56017 0.785399 7.94172 1.16293C 8.30721 1.51255 8.60852 1.92358 8.83196 2.37733C 9.06483 2.87294 9.19947 3.40898 9.22844 3.95581L 7.38065 3.95581C 7.34681 3.61709 7.25575 3.28656 7.11134 2.9783C 6.98616 2.71212 6.81762 2.46858 6.61261 2.25764C 6.38686 2.05024 6.12481 1.88624 5.83958 1.77387C 5.17351 1.52343 4.43781 1.53144 3.77734 1.79631C 3.4848 1.926 3.21063 2.09368 2.96192 2.29504C 2.52234 2.6842 2.21761 3.20284 2.09164 3.77627C 1.79105 5.04712 1.79105 6.37056 2.09164 7.64141C 2.21745 8.2149 2.5222 8.73359 2.96192 9.12264C 3.21044 9.32426 3.48465 9.49197 3.77734 9.62137C 4.11689 9.76547 4.48336 9.83519 4.8521 9.82584C 5.20864 9.82927 5.56252 9.76408 5.89444 9.63384C 6.19924 9.51683 6.47432 9.33373 6.69989 9.0977C 6.89983 8.89807 7.06353 8.66519 7.18366 8.40946C 7.31567 8.11725 7.39987 7.80573 7.43302 7.48681L 9.28081 7.48681L 9.28081 7.50177Z"/>
<path id="path11_fill" d="M 10.0544 11.0395C 9.87094 11.1339 9.67545 11.2027 9.47335 11.244C 9.26772 11.2818 9.059 11.3001 8.84994 11.2988C 8.63433 11.3094 8.41909 11.2715 8.22012 11.1877C 8.02115 11.104 7.84353 10.9767 7.70037 10.8151C 7.42038 10.4908 7.27105 10.0739 7.28144 9.64556L 7.23905 9.64556C 6.90644 10.2061 6.41771 10.6575 5.83263 10.9448C 5.1839 11.2733 4.46507 11.4393 3.73797 11.4285C 3.17649 11.4413 2.61804 11.343 2.09466 11.1393C 1.66033 10.9663 1.26579 10.7067 0.935117 10.3762C 0.631996 10.0689 0.394453 9.70328 0.236896 9.30144C 0.0811604 8.91198 0.000772792 8.4965 3.044e-07 8.07706C 0.00453856 7.70501 0.0659252 7.33585 0.182035 6.98235C 0.31026 6.58498 0.526805 6.2218 0.815423 5.92006C 1.15567 5.56985 1.56041 5.28873 2.00738 5.09217C 2.59577 4.84138 3.22583 4.70269 3.86515 4.68321L 7.17172 4.4912L 7.17172 3.69573C 7.16949 3.40717 7.13689 3.11965 7.07447 2.83792C 7.0069 2.53133 6.84569 2.25334 6.61314 2.04244C 6.41037 1.86042 6.17287 1.72131 5.91492 1.63349C 5.56431 1.52308 5.1976 1.4725 4.83019 1.48387C 4.41443 1.47032 3.99964 1.53198 3.60581 1.6659C 3.3272 1.76625 3.07247 1.92334 2.85771 2.12723C 2.68376 2.29732 2.54645 2.50121 2.45425 2.72636C 2.36204 2.95151 2.3169 3.19314 2.32158 3.43639L 0.538628 3.43639C 0.541523 2.98977 0.633064 2.54817 0.807942 2.1372C 0.971591 1.77282 1.20063 1.44151 1.48372 1.15969C 1.88699 0.753923 2.38488 0.454849 2.93253 0.289413C 3.54666 0.0932572 4.188 -0.00437256 4.83268 0.000151198C 5.89165 0.000151198 6.72951 0.197148 7.34627 0.591143C 7.92539 0.944266 8.38231 1.46646 8.65543 2.08733C 8.87587 2.61811 8.98535 3.18838 8.97712 3.76306L 8.97712 9.02465C 8.95222 9.23213 9.0105 9.44103 9.1392 9.60566C 9.26119 9.71119 9.41957 9.76488 9.58058 9.75528L 9.73019 9.75528C 9.78095 9.75591 9.83147 9.74833 9.87981 9.73284L 10.0519 9.69045L 10.0519 11.0445L 10.0544 11.0395ZM 7.17671 5.9051L 4.25665 6.07716C 3.97316 6.09353 3.69226 6.14035 3.41878 6.2168C 3.14467 6.2903 2.88381 6.40642 2.64575 6.56093C 2.41611 6.71178 2.22485 6.91414 2.08718 7.15192C 1.93776 7.42068 1.86367 7.7248 1.87273 8.03217C 1.87115 8.51228 2.04903 8.97564 2.37146 9.33136C 2.70394 9.7104 3.25503 9.89991 4.02474 9.89991C 4.43899 9.90032 4.85009 9.82773 5.23915 9.68546C 5.62647 9.54628 5.97578 9.31825 6.25905 9.01966C 6.5812 8.70155 6.82383 8.31199 6.96724 7.88256C 7.11031 7.45322 7.18273 7.0035 7.18169 6.55095L 7.18169 5.90759L 7.17671 5.9051Z"/>
<path id="path12_fill" d="M 3.571 15.5005C 3.46626 15.533 3.35848 15.5547 3.24932 15.5653C 2.92945 15.6163 2.6056 15.638 2.28179 15.6302C 1.4805 15.6302 0.898647 15.4007 0.536237 14.9419C 0.173828 14.4831 -0.00488208 13.8248 0.000105204 12.9669L 0.000105204 -7.61e-07L 1.82545 -7.61e-07L 1.82545 12.8647C 1.80397 13.1599 1.87926 13.454 2.0399 13.7026C 2.13841 13.8057 2.25947 13.8846 2.3936 13.933C 2.52773 13.9815 2.67126 13.9982 2.81293 13.9819L 3.4139 13.9819C 3.46465 13.9824 3.51517 13.9749 3.56352 13.9594L 3.56352 15.5055L 3.571 15.5005Z"/>
<path id="path13_fill" d="M 9.63045 5.68644C 9.63864 6.58061 9.49704 7.46984 9.21152 8.31723C 8.9608 9.07568 8.53345 9.7637 7.9647 10.3246C 7.59057 10.6646 7.15802 10.9341 6.68795 11.1201C 6.1434 11.33 5.56333 11.4325 4.97981 11.4218C 4.67248 11.4211 4.36626 11.3851 4.06713 11.3146C 3.7613 11.2432 3.46315 11.1421 3.1769 11.0129C 2.8957 10.8869 2.6324 10.7242 2.39389 10.5291C 2.16676 10.3462 1.97421 10.1241 1.82534 9.87327L 1.82534 15.7682L 3.044e-06 15.7682L 3.044e-06 0.272741L 1.61089 0.272741L 1.74056 1.68913C 2.06666 1.13974 2.55432 0.704331 3.137 0.442309C 3.71188 0.158023 4.3435 0.00714873 4.98479 0.000932934C 5.59041 -0.0111819 6.1926 0.0946881 6.75777 0.312638C 7.24731 0.507958 7.69005 0.804533 8.05696 1.18292C 8.59084 1.74456 8.99067 2.41975 9.22648 3.15789C 9.49767 3.97318 9.63411 4.82724 9.63045 5.68644ZM 7.76271 5.70888C 7.76292 5.20689 7.71617 4.70598 7.62307 4.2127C 7.53767 3.74168 7.37416 3.28824 7.1393 2.87112C 6.91268 2.47272 6.58718 2.13948 6.19421 1.90358C 5.73828 1.64737 5.2207 1.52143 4.69803 1.53951C 4.34695 1.52948 3.9982 1.5994 3.67813 1.74399C 3.40527 1.87197 3.15311 2.04008 2.93003 2.24272C 2.4723 2.64274 2.14341 3.16948 1.98494 3.75636C 1.6414 5.02946 1.6414 6.37086 1.98494 7.64395C 2.14327 8.23089 2.47218 8.75767 2.93003 9.15759C 3.15286 9.36056 3.40507 9.5287 3.67813 9.65632C 3.99814 9.80108 4.34694 9.87101 4.69803 9.8608C 5.22071 9.87901 5.73833 9.75306 6.19421 9.49673C 6.58732 9.26101 6.91287 8.92773 7.1393 8.5292C 7.37421 8.11209 7.53772 7.65865 7.62307 7.18761C 7.71442 6.69917 7.76034 6.20331 7.76022 5.70639L 7.76271 5.70888Z"/>
<path id="path14_fill" d="M 0 2.14952L 0 -4.566e-07L 2.12708 -4.566e-07L 2.12708 2.14703L 0 2.14703L 0 2.14952ZM 0.129667 15.508L 0.129667 4.64067L 1.99491 4.64067L 1.99491 15.508L 0.127178 15.508L 0.129667 15.508Z"/>
<path id="path15_fill" d="M 6.95478 11.1466L 6.95478 4.25166C 6.95478 3.43541 6.77191 2.79787 6.40617 2.33904C 6.04044 1.88021 5.42866 1.65079 4.57085 1.65079C 4.06655 1.64198 3.57421 1.80463 3.17441 2.11212C 2.76089 2.4352 2.4294 2.85126 2.20688 3.32652C 2.01292 3.76028 1.90049 4.22604 1.87522 4.70052C 1.83864 5.21587 1.82119 5.68135 1.82285 6.09696L 1.82285 11.1441L 0 11.1441L 0 0.279288L 1.58845 0.279288L 1.73807 1.91263C 1.87767 1.60241 2.07482 1.32149 2.31909 1.08474C 2.5609 0.849363 2.83557 0.650294 3.13451 0.493741C 3.43468 0.336862 3.75175 0.214716 4.0796 0.12967C 4.3878 0.0462872 4.70542 0.00271059 5.02469 9.13199e-07C 6.26985 9.13199e-07 7.20746 0.350772 7.83752 1.05232C 8.46758 1.75386 8.78261 2.7347 8.78261 3.99482L 8.78261 11.1466L 6.95726 11.1466L 6.95478 11.1466Z"/>
<path id="path16_fill" d="M 9.63059 5.12577L 9.63059 5.71676C 9.63059 5.90961 9.62311 6.1066 9.60815 6.30776L 1.92024 6.30776C 1.92148 6.81933 2.01613 7.32637 2.19953 7.80394C 2.36402 8.27055 2.62776 8.69594 2.97256 9.05076C 3.23498 9.30858 3.54726 9.51012 3.89029 9.64305C 4.23331 9.77597 4.59985 9.83747 4.96747 9.82379C 5.85521 9.82379 6.5285 9.58773 6.98733 9.1156C 7.1372 8.96678 7.26712 8.79913 7.37384 8.61687C 7.48807 8.39995 7.57197 8.16837 7.6232 7.92862L 9.40616 7.92862C 9.33458 8.47147 9.14384 8.99177 8.84758 9.45224C 8.55927 9.91176 8.1789 10.3066 7.73043 10.6118C 7.33274 10.8747 6.89828 11.0772 6.44122 11.2128C 5.96073 11.3568 5.4616 11.4291 4.95999 11.4272C 4.24472 11.4392 3.53609 11.2882 2.88778 10.9858C 2.29506 10.7051 1.77082 10.2983 1.35169 9.79387C 0.889983 9.25815 0.542886 8.63354 0.331791 7.95855C 0.107435 7.24629 -0.00445765 6.5034 0.000139761 5.75666C -0.00304173 5.13216 0.0621815 4.50919 0.194644 3.8989C 0.320012 3.32736 0.537285 2.77996 0.838 2.27803C 1.23761 1.60581 1.79912 1.0443 2.47133 0.644692C 3.21782 0.203444 4.07315 -0.0194593 4.94005 0.00133311C 5.55861 -0.0130225 6.17319 0.104025 6.74317 0.344744C 7.31316 0.585463 7.82559 0.944374 8.24661 1.39777C 8.68211 1.88822 9.02058 2.45686 9.24407 3.0735C 9.49628 3.7285 9.62726 4.4239 9.63059 5.12577L 9.63059 5.12577ZM 7.75786 4.73926C 7.75883 4.33241 7.70087 3.92756 7.5858 3.53732C 7.47987 3.17795 7.31101 2.84023 7.08707 2.53986C 6.8531 2.23503 6.55184 1.98839 6.20681 1.8192C 5.81137 1.63177 5.37754 1.53953 4.94005 1.54989C 4.49097 1.53865 4.04565 1.63438 3.64085 1.82917C 3.2866 2.0071 2.97259 2.25576 2.71821 2.55981C 2.46749 2.86024 2.27775 3.20667 2.15963 3.57971C 2.03786 3.95826 1.96906 4.35183 1.95516 4.74923L 7.75786 4.74923L 7.75786 4.73926Z"/>
</defs>
</svg>
